<svg xmlns="http://www.w3.org/2000/svg" xmlns:xlink="http://www.w3.org/1999/xlink" width="133" height="130" viewBox="0 0 133 130"><defs><style>.a{fill:#57e5ac;opacity:.1}.b,.c{fill:none;stroke:#5ad6a6;stroke-miterlimit:10;stroke-width:2px}.c{stroke-linecap:round}.d{filter:url(#a)}</style><filter id="a" width="133" height="130" x="0" y="0" filterUnits="userSpaceOnUse"><feOffset dy="10" input="SourceAlpha"/><feGaussianBlur result="b" stdDeviation="10"/><feFlood flood-color="#f5e3f9" flood-opacity=".11"/><feComposite in2="b" operator="in"/><feComposite in="SourceGraphic"/></filter></defs><g><g class="d" transform="translate(30 20) matrix(1, 0, 0, 1, -30, -20)"><rect width="73" height="70" class="a" rx="15" transform="translate(30 20)"/></g><g transform="translate(30 20) translate(15.5 19)"><rect width="45" height="31" class="b" rx="5"/><line x2="45.151" class="b" transform="translate(0 23.352)"/><line y2="5.283" class="b" transform="translate(24.715 30.908)"/><line x1="10.597" class="c" transform="translate(16.798 36.192)"/><line y2="5.283" class="b" transform="translate(19.439 30.908)"/><path d="M635.084,520.563l4.515-7.741a.348.348,0,0,1,.562-.056l3.45,3.909a.346.346,0,0,0,.556-.047l1.939-3.119a.346.346,0,0,1,.569-.03l3.345,4.266a.349.349,0,0,0,.56-.015l5.71-8.177" class="c" transform="translate(-622.894 -501.458)"/></g></g></svg>